# Alias OBJ Model File
# Exported from SketchUp, (c) 2000-2012 Trimble Navigation Limited
# File units = inches

mtllib Barrier_Steel rowing.mtl

g Mesh1 Vertical_Bar1 Barrier_Steel1 Model

usemtl Metal_Aluminum_Anodized
v 56.5699 44.3277 -12.0919
vt 0.00682578 0.668387
vn 0.912253 0 -0.409627
v 56.4389 44.3277 -11.7474
vt -2.40259e-16 0.668387
vn 0.409627 0 0.912253
v 56.4389 8.2348 -11.7474
vt -2.40259e-16 0
v 56.5699 8.2348 -12.0919
vt 0.00682578 0
f 1/1/1 2/2/2 3/3/2 4/4/1 

vt 0.0303261 0.668387
v 56.0943 44.3277 -11.8784
vt 0.0204773 0.668387
vn -0.912253 0 0.409627
v 56.0943 8.2348 -11.8784
vt 0.0204773 0
vt 0.0303261 0
f 2/5/2 5/6/3 6/7/3 3/8/2 

v 56.2253 44.3277 -12.2229
vt 0.0136516 0.668387
vn -0.409627 0 -0.912253
v 56.2253 8.2348 -12.2229
vt 0.0136516 1.31622e-16
vt 0.0204773 1.31622e-16
f 5/6/3 7/9/4 8/10/4 6/11/3 

vt 0.0136516 0
f 7/9/4 1/1/1 4/4/1 8/12/4 

g Mesh2 Vertical_Bar2 Barrier_Steel1 Model

v 60.5699 44.3277 -12.0919
v 60.4389 44.3277 -11.7474
v 60.4389 8.2348 -11.7474
v 60.5699 8.2348 -12.0919
f 9/1/1 10/2/2 11/3/2 12/4/1 

v 60.0943 44.3277 -11.8784
v 60.0943 8.2348 -11.8784
f 10/5/2 13/6/3 14/7/3 11/8/2 

v 60.2253 44.3277 -12.2229
v 60.2253 8.2348 -12.2229
f 13/6/3 15/9/4 16/10/4 14/11/3 

f 15/9/4 9/1/1 12/4/1 16/12/4 

g Mesh3 Vertical_Bar3 Barrier_Steel1 Model

v 24.5699 44.3277 -12.0919
v 24.4389 44.3277 -11.7474
v 24.4389 8.2348 -11.7474
v 24.5699 8.2348 -12.0919
f 17/1/1 18/2/2 19/3/2 20/4/1 

v 24.0943 44.3277 -11.8784
v 24.0943 8.2348 -11.8784
f 18/5/2 21/6/3 22/7/3 19/8/2 

v 24.2253 44.3277 -12.2229
v 24.2253 8.2348 -12.2229
f 21/6/3 23/9/4 24/10/4 22/11/3 

f 23/9/4 17/1/1 20/4/1 24/12/4 

g Mesh4 Vertical_Bar4 Barrier_Steel1 Model

v 28.5699 44.3277 -12.0919
v 28.4389 44.3277 -11.7474
v 28.4389 8.2348 -11.7474
v 28.5699 8.2348 -12.0919
f 25/1/1 26/2/2 27/3/2 28/4/1 

v 28.0943 44.3277 -11.8784
v 28.0943 8.2348 -11.8784
f 26/5/2 29/6/3 30/7/3 27/8/2 

v 28.2253 44.3277 -12.2229
v 28.2253 8.2348 -12.2229
f 29/6/3 31/9/4 32/10/4 30/11/3 

f 31/9/4 25/1/1 28/4/1 32/12/4 

g Mesh5 Vertical_Bar5 Barrier_Steel1 Model

v 16.5699 44.3277 -12.0919
v 16.4389 44.3277 -11.7474
v 16.4389 8.2348 -11.7474
v 16.5699 8.2348 -12.0919
f 33/1/1 34/2/2 35/3/2 36/4/1 

v 16.0943 44.3277 -11.8784
v 16.0943 8.2348 -11.8784
f 34/5/2 37/6/3 38/7/3 35/8/2 

v 16.2253 44.3277 -12.2229
v 16.2253 8.2348 -12.2229
f 37/6/3 39/9/4 40/10/4 38/11/3 

f 39/9/4 33/1/1 36/4/1 40/12/4 

g Mesh6 Vertical_Bar6 Barrier_Steel1 Model

v 12.5699 44.3277 -12.0919
v 12.4389 44.3277 -11.7474
v 12.4389 8.2348 -11.7474
v 12.5699 8.2348 -12.0919
f 41/1/1 42/2/2 43/3/2 44/4/1 

v 12.0943 44.3277 -11.8784
v 12.0943 8.2348 -11.8784
f 42/5/2 45/6/3 46/7/3 43/8/2 

v 12.2253 44.3277 -12.2229
v 12.2253 8.2348 -12.2229
f 45/6/3 47/9/4 48/10/4 46/11/3 

f 47/9/4 41/1/1 44/4/1 48/12/4 

g Mesh7 Vertical_Bar7 Barrier_Steel1 Model

v 32.5699 44.3277 -12.0919
v 32.4389 44.3277 -11.7474
v 32.4389 8.2348 -11.7474
v 32.5699 8.2348 -12.0919
f 49/1/1 50/2/2 51/3/2 52/4/1 

v 32.0943 44.3277 -11.8784
v 32.0943 8.2348 -11.8784
f 50/5/2 53/6/3 54/7/3 51/8/2 

v 32.2253 44.3277 -12.2229
v 32.2253 8.2348 -12.2229
f 53/6/3 55/9/4 56/10/4 54/11/3 

f 55/9/4 49/1/1 52/4/1 56/12/4 

g Mesh8 Vertical_Bar8 Barrier_Steel1 Model

v 20.5699 44.3277 -12.0919
v 20.4389 44.3277 -11.7474
v 20.4389 8.2348 -11.7474
v 20.5699 8.2348 -12.0919
f 57/1/1 58/2/2 59/3/2 60/4/1 

v 20.0943 44.3277 -11.8784
v 20.0943 8.2348 -11.8784
f 58/5/2 61/6/3 62/7/3 59/8/2 

v 20.2253 44.3277 -12.2229
v 20.2253 8.2348 -12.2229
f 61/6/3 63/9/4 64/10/4 62/11/3 

f 63/9/4 57/1/1 60/4/1 64/12/4 

g Mesh9 Vertical_Bar9 Barrier_Steel1 Model

v 8.56985 44.3277 -12.0919
v 8.43885 44.3277 -11.7474
v 8.43885 8.2348 -11.7474
v 8.56985 8.2348 -12.0919
f 65/1/1 66/2/2 67/3/2 68/4/1 

v 8.09432 44.3277 -11.8784
v 8.09432 8.2348 -11.8784
f 66/5/2 69/6/3 70/7/3 67/8/2 

v 8.22532 44.3277 -12.2229
v 8.22532 8.2348 -12.2229
f 69/6/3 71/9/4 72/10/4 70/11/3 

f 71/9/4 65/1/1 68/4/1 72/12/4 

g Mesh10 Vertical_Bar10 Barrier_Steel1 Model

v 4.56985 44.3277 -12.0919
v 4.43885 44.3277 -11.7474
v 4.43885 8.2348 -11.7474
v 4.56985 8.2348 -12.0919
f 73/1/1 74/2/2 75/3/2 76/4/1 

v 4.09432 44.3277 -11.8784
v 4.09432 8.2348 -11.8784
f 74/5/2 77/6/3 78/7/3 75/8/2 

v 4.22532 44.3277 -12.2229
v 4.22532 8.2348 -12.2229
f 77/6/3 79/9/4 80/10/4 78/11/3 

f 79/9/4 73/1/1 76/4/1 80/12/4 

g Mesh11 Vertical_Bar11 Barrier_Steel1 Model

v 64.5699 44.3277 -12.0919
v 64.4389 44.3277 -11.7474
v 64.4389 8.2348 -11.7474
v 64.5699 8.2348 -12.0919
f 81/1/1 82/2/2 83/3/2 84/4/1 

v 64.0943 44.3277 -11.8784
v 64.0943 8.2348 -11.8784
f 82/5/2 85/6/3 86/7/3 83/8/2 

v 64.2253 44.3277 -12.2229
v 64.2253 8.2348 -12.2229
f 85/6/3 87/9/4 88/10/4 86/11/3 

f 87/9/4 81/1/1 84/4/1 88/12/4 

g Mesh12 Vertical_Bar12 Barrier_Steel1 Model

v 68.5699 44.3277 -12.0919
v 68.4389 44.3277 -11.7474
v 68.4389 8.2348 -11.7474
v 68.5699 8.2348 -12.0919
f 89/1/1 90/2/2 91/3/2 92/4/1 

v 68.0943 44.3277 -11.8784
v 68.0943 8.2348 -11.8784
f 90/5/2 93/6/3 94/7/3 91/8/2 

v 68.2253 44.3277 -12.2229
v 68.2253 8.2348 -12.2229
f 93/6/3 95/9/4 96/10/4 94/11/3 

f 95/9/4 89/1/1 92/4/1 96/12/4 

g Mesh13 Vertical_Bar13 Barrier_Steel1 Model

v 72.5699 44.3277 -12.0919
v 72.4389 44.3277 -11.7474
v 72.4389 8.2348 -11.7474
v 72.5699 8.2348 -12.0919
f 97/1/1 98/2/2 99/3/2 100/4/1 

v 72.0943 44.3277 -11.8784
v 72.0943 8.2348 -11.8784
f 98/5/2 101/6/3 102/7/3 99/8/2 

v 72.2253 44.3277 -12.2229
v 72.2253 8.2348 -12.2229
f 101/6/3 103/9/4 104/10/4 102/11/3 

f 103/9/4 97/1/1 100/4/1 104/12/4 

g Mesh14 Vertical_Bar14 Barrier_Steel1 Model

v 76.5699 44.3277 -12.0919
v 76.4389 44.3277 -11.7474
v 76.4389 8.2348 -11.7474
v 76.5699 8.2348 -12.0919
f 105/1/1 106/2/2 107/3/2 108/4/1 

v 76.0943 44.3277 -11.8784
v 76.0943 8.2348 -11.8784
f 106/5/2 109/6/3 110/7/3 107/8/2 

v 76.2253 44.3277 -12.2229
v 76.2253 8.2348 -12.2229
f 109/6/3 111/9/4 112/10/4 110/11/3 

f 111/9/4 105/1/1 108/4/1 112/12/4 

g Mesh15 Vertical_Bar15 Barrier_Steel1 Model

v 80.5699 44.3277 -12.0919
v 80.4389 44.3277 -11.7474
v 80.4389 8.2348 -11.7474
v 80.5699 8.2348 -12.0919
f 113/1/1 114/2/2 115/3/2 116/4/1 

v 80.0943 44.3277 -11.8784
v 80.0943 8.2348 -11.8784
f 114/5/2 117/6/3 118/7/3 115/8/2 

v 80.2253 44.3277 -12.2229
v 80.2253 8.2348 -12.2229
f 117/6/3 119/9/4 120/10/4 118/11/3 

f 119/9/4 113/1/1 116/4/1 120/12/4 

g Mesh16 Vertical_Bar16 Barrier_Steel1 Model

v 84.5699 44.3277 -12.0919
v 84.4389 44.3277 -11.7474
v 84.4389 8.2348 -11.7474
v 84.5699 8.2348 -12.0919
f 121/1/1 122/2/2 123/3/2 124/4/1 

v 84.0943 44.3277 -11.8784
v 84.0943 8.2348 -11.8784
f 122/5/2 125/6/3 126/7/3 123/8/2 

v 84.2253 44.3277 -12.2229
v 84.2253 8.2348 -12.2229
f 125/6/3 127/9/4 128/10/4 126/11/3 

f 127/9/4 121/1/1 124/4/1 128/12/4 

g Mesh17 Vertical_Bar17 Barrier_Steel1 Model

v 88.5699 44.3277 -12.0919
v 88.4389 44.3277 -11.7474
v 88.4389 8.2348 -11.7474
v 88.5699 8.2348 -12.0919
f 129/1/1 130/2/2 131/3/2 132/4/1 

v 88.0943 44.3277 -11.8784
v 88.0943 8.2348 -11.8784
f 130/5/2 133/6/3 134/7/3 131/8/2 

v 88.2253 44.3277 -12.2229
v 88.2253 8.2348 -12.2229
f 133/6/3 135/9/4 136/10/4 134/11/3 

f 135/9/4 129/1/1 132/4/1 136/12/4 

g Mesh18 Vertical_Bar18 Barrier_Steel1 Model

v 92.5699 44.3277 -12.0919
v 92.4389 44.3277 -11.7474
v 92.4389 8.2348 -11.7474
v 92.5699 8.2348 -12.0919
f 137/1/1 138/2/2 139/3/2 140/4/1 

v 92.0943 44.3277 -11.8784
v 92.0943 8.2348 -11.8784
f 138/5/2 141/6/3 142/7/3 139/8/2 

v 92.2253 44.3277 -12.2229
v 92.2253 8.2348 -12.2229
f 141/6/3 143/9/4 144/10/4 142/11/3 

f 143/9/4 137/1/1 140/4/1 144/12/4 

g Mesh19 Foot1 Barrier_Steel1 Model

v 0 0 -3.33067e-16
vt -6.16791e-18 -1.82461e-48
vn -0.707107 -0.707107 -3.33067e-16
v 0 0.707107 -1.66533e-16
vt -3.08395e-18 0.0130946
vn -1 1.25607e-15 -2.35514e-16
v 0 0.894607 -1.22375e-16
vt -2.2662e-18 0.0165668
v 0 0.894607 -24
vt -0.444444 0.0165668
v 0 0.707107 -24
vt -0.444444 0.0130946
v 0 5.65233e-15 -24
vt -0.444444 1.04673e-16
f 145/13/5 146/14/6 147/15/6 148/16/6 149/17/6 150/18/5 

vt -7.26314e-34 0.0130946
vn -2.35514e-16 -2.35514e-16 1
vt -1.45263e-33 -1.45263e-33
v 0.707107 8.88178e-16 -1.66533e-16
vt 0.0130946 1.64477e-17
v 0.894607 8.88178e-16 -1.22375e-16
vt 0.0165668 1.64477e-17
v 0.894607 0.707107 4.41589e-17
vt 0.0165668 0.0130946
v 0.894607 0.894607 8.83177e-17
vt 0.0165668 0.0165668
v 0.707107 0.894607 4.41589e-17
vt 0.0130946 0.0165668
vt -5.33721e-34 0.0165668
f 146/19/7 145/20/7 151/21/7 152/22/7 153/23/7 154/24/7 155/25/7 147/26/7 

vt -0.0130946 3.08395e-18
vn 1.25607e-15 -1 -2.35514e-16
vt 0 6.16791e-18
vt -1.31477e-31 0.444444
v 0.707107 6.54051e-15 -24
vt -0.0130946 0.444444
v 0.894607 6.54051e-15 -24
vt -0.0165668 0.444444
vt -0.0165668 2.2662e-18
f 151/27/8 145/28/5 150/29/5 156/30/8 157/31/8 152/32/8 

vt 1.04673e-16 1.46085e-32
vn 2.35514e-16 2.35514e-16 -1
vt 1.04673e-16 0.0130946
vt 1.04673e-16 0.0165668
v 0.707107 0.894607 -24
vt -0.0130946 0.0165668
v 0.894607 0.894607 -24
vt -0.0165668 0.0165668
v 0.894607 0.707107 -24
vt -0.0165668 0.0130946
vt -0.0165668 1.64477e-17
vt -0.0130946 1.64477e-17
f 150/33/9 149/34/9 148/35/9 158/36/9 159/37/9 160/38/9 157/39/9 156/40/9 

vt -2.08091e-17 6.16791e-18
vn 1.25607e-15 1 2.35514e-16
vt 0.0130946 3.08395e-18
vt 0.0165668 2.2662e-18
vt 0.0165668 0.444444
vt 0.0130946 0.444444
vt -2.08091e-17 0.444444
f 147/41/10 155/42/10 154/43/10 159/44/10 158/45/10 148/46/10 

vt 3.08395e-18 0.0130946
vn 1 -5.54668e-32 2.35514e-16
vt 6.16791e-18 1.64477e-17
vt 0.444444 1.21121e-16
vt 0.444444 0.0130946
vt 0.444444 0.0165668
vt 2.2662e-18 0.0165668
f 153/47/11 152/48/11 157/49/11 160/50/11 159/51/11 154/52/11 

g Mesh20 Foot2 Barrier_Steel1 Model

v 96 0 -0
v 96 0.707107 1.66533e-16
v 96 0.894607 2.10692e-16
v 96 0.894607 -24
v 96 0.707107 -24
v 96 5.65233e-15 -24
f 161/13/5 162/14/6 163/15/6 164/16/6 165/17/6 166/18/5 

v 96.7071 8.88178e-16 1.66533e-16
v 96.8946 8.88178e-16 2.10692e-16
v 96.8946 0.707107 3.77226e-16
v 96.8946 0.894607 4.21385e-16
v 96.7071 0.894607 3.77226e-16
f 162/19/7 161/20/7 167/21/7 168/22/7 169/23/7 170/24/7 171/25/7 163/26/7 

v 96.7071 6.54051e-15 -24
v 96.8946 6.54051e-15 -24
f 167/27/8 161/28/5 166/29/5 172/30/8 173/31/8 168/32/8 

v 96.7071 0.894607 -24
v 96.8946 0.894607 -24
v 96.8946 0.707107 -24
f 166/33/9 165/34/9 164/35/9 174/36/9 175/37/9 176/38/9 173/39/9 172/40/9 

f 163/41/10 171/42/10 170/43/10 175/44/10 174/45/10 164/46/10 

f 169/47/11 168/48/11 173/49/11 176/50/11 175/51/11 170/52/11 

g Mesh21 Vertical_Bar19 Barrier_Steel1 Model

v 36.5699 44.3277 -12.0919
v 36.4389 44.3277 -11.7474
v 36.4389 8.2348 -11.7474
v 36.5699 8.2348 -12.0919
f 177/1/1 178/2/2 179/3/2 180/4/1 

v 36.0943 44.3277 -11.8784
v 36.0943 8.2348 -11.8784
f 178/5/2 181/6/3 182/7/3 179/8/2 

v 36.2253 44.3277 -12.2229
v 36.2253 8.2348 -12.2229
f 181/6/3 183/9/4 184/10/4 182/11/3 

f 183/9/4 177/1/1 180/4/1 184/12/4 

g Mesh22 Vertical_Bar20 Barrier_Steel1 Model

v 40.5699 44.3277 -12.0919
v 40.4389 44.3277 -11.7474
v 40.4389 8.2348 -11.7474
v 40.5699 8.2348 -12.0919
f 185/1/1 186/2/2 187/3/2 188/4/1 

v 40.0943 44.3277 -11.8784
v 40.0943 8.2348 -11.8784
f 186/5/2 189/6/3 190/7/3 187/8/2 

v 40.2253 44.3277 -12.2229
v 40.2253 8.2348 -12.2229
f 189/6/3 191/9/4 192/10/4 190/11/3 

f 191/9/4 185/1/1 188/4/1 192/12/4 

g Mesh23 Vertical_Bar21 Barrier_Steel1 Model

v 44.5699 44.3277 -12.0919
v 44.4389 44.3277 -11.7474
v 44.4389 8.2348 -11.7474
v 44.5699 8.2348 -12.0919
f 193/1/1 194/2/2 195/3/2 196/4/1 

v 44.0943 44.3277 -11.8784
v 44.0943 8.2348 -11.8784
f 194/5/2 197/6/3 198/7/3 195/8/2 

v 44.2253 44.3277 -12.2229
v 44.2253 8.2348 -12.2229
f 197/6/3 199/9/4 200/10/4 198/11/3 

f 199/9/4 193/1/1 196/4/1 200/12/4 

g Mesh24 Vertical_Bar22 Barrier_Steel1 Model

v 48.5699 44.3277 -12.0919
v 48.4389 44.3277 -11.7474
v 48.4389 8.2348 -11.7474
v 48.5699 8.2348 -12.0919
f 201/1/1 202/2/2 203/3/2 204/4/1 

v 48.0943 44.3277 -11.8784
v 48.0943 8.2348 -11.8784
f 202/5/2 205/6/3 206/7/3 203/8/2 

v 48.2253 44.3277 -12.2229
v 48.2253 8.2348 -12.2229
f 205/6/3 207/9/4 208/10/4 206/11/3 

f 207/9/4 201/1/1 204/4/1 208/12/4 

g Mesh25 Vertical_Bar23 Barrier_Steel1 Model

v 52.5699 44.3277 -12.0919
v 52.4389 44.3277 -11.7474
v 52.4389 8.2348 -11.7474
v 52.5699 8.2348 -12.0919
f 209/1/1 210/2/2 211/3/2 212/4/1 

v 52.0943 44.3277 -11.8784
v 52.0943 8.2348 -11.8784
f 210/5/2 213/6/3 214/7/3 211/8/2 

v 52.2253 44.3277 -12.2229
v 52.2253 8.2348 -12.2229
f 213/6/3 215/9/4 216/10/4 214/11/3 

f 215/9/4 209/1/1 212/4/1 216/12/4 

g Mesh26 Barrier1 Barrier_Steel1 Model

v 1.17344 42.8423 -12.5303
vt -0.0341381 0.608104
vn -0.568507 0.413045 -0.711473
v 0.993512 42.973 -12
vt -0.0239799 0.611302
vn -0.809017 0.587785 9.12507e-17
v 2.48889 44.4684 -12
vt -0.0379769 0.647878
vn -0.587785 0.809017 1.06459e-16
v 2.61962 44.2885 -12.5303
vt -0.0476746 0.643477
vn -0.413045 0.568507 -0.711473
f 217/53/12 218/54/13 219/55/14 220/56/15 

v 0.24494 41.02 -12.5303
vt -0.025661 0.689144
vn -0.66832 0.21715 -0.711473
v 0.033417 41.0888 -12
vt -0.0151041 0.690546
vn -0.951057 0.309017 -3.49794e-16
vt -0.0225992 0.728985
vt -0.0329095 0.726318
f 221/57/16 222/58/17 218/59/13 217/60/12 

v -0.0683903 39.0417 -12.5303
vt -0.0234381 0.714621
vn -0.703838 0.0553932 -0.708198
v -0.28806 39.059 -12
vt -0.0128082 0.714945
vn -0.996917 0.0784591 -4.21894e-16
vt -0.0151106 0.752931
vt -0.0256822 0.751645
f 223/61/18 224/62/19 222/63/17 221/64/16 

v -0.0683903 1.09537e-14 -12.5303
vt -0.0234618 1.52835e-18
vn -0.707107 -1.77102e-16 -0.707107
v -0.28806 1.10865e-14 -12
vt -0.0128317 3.9886e-18
vn -1 4.60996e-18 -1.80255e-16
vt -0.0128317 0.723315
vt -0.0234618 0.722995
f 225/65/20 226/66/21 224/67/19 223/68/18 

vt -0.0128317 4.03388e-18
v -0.0683903 1.12194e-14 -11.4697
vt -0.00220156 6.49414e-18
vn -0.707107 1.9299e-16 0.707107
v -0.0683903 39.0417 -11.4697
vt -0.00220156 0.722995
vn -0.703838 0.0553932 0.708198
vn -0.996917 0.0784591 -4.06827e-16
f 226/69/21 227/70/22 228/71/23 224/67/24 

vt 0.00220156 7.28039e-18
v 0.46194 1.12744e-14 -11.25
vt 0.0128317 8.29946e-18
vn -6.00848e-17 2.73285e-16 1
v 0.46194 39 -11.25
vt 0.0128317 0.722222
vn 6.00848e-17 -1.30164e-15 1
vt 0.00220156 0.722995
f 227/72/22 229/73/25 230/74/26 228/75/23 

vn 6.00848e-17 -1.3023e-15 1
vt 0.0128317 5.61555e-18
v 0.99227 1.12194e-14 -11.4697
vt 0.0234618 4.59647e-18
vn 0.707107 2.49751e-16 0.707107
v 0.99227 38.9583 -11.4697
vt 0.0234618 0.721449
vn 0.703838 -0.0553932 0.708198
f 230/74/27 229/76/25 231/77/28 232/78/29 

v 1.21194 1.10865e-14 -12
vt 0.0234618 -7.68943e-19
vn 1 1.86121e-16 2.37335e-15
v 1.21194 7.3125 -12
vt 0.0234618 0.135417
v 1.06549 7.45895 -11.6464
vt 0.016375 0.138129
vn 0.92388 2.08778e-16 0.382683
v 1.00483 7.8125 -11.5
vt 0.0134396 0.144676
v 1.06549 8.16605 -11.6464
vt 0.016375 0.151223
v 1.21194 8.3125 -12
vt 0.0234618 0.153935
v 1.21194 38.941 -12
vt 0.0234618 0.721129
vn 0.996917 -0.0784591 1.22048e-15
vt 0.0128317 0.721449
vt 0.0128317 1.69132e-18
f 233/79/30 234/80/30 235/81/31 236/82/31 237/83/31 238/84/30 239/85/32 232/86/29 231/87/28 

vt 0.00220156 0.721129
vt 0.00220156 0.153935
v 1.06549 8.16605 -12.3536
vt 0.0092883 0.151223
vn 0.92388 1.35129e-16 -0.382683
v 1.00483 7.8125 -12.5
vt 0.0122237 0.144676
v 1.06549 7.45895 -12.3536
vt 0.0092883 0.138129
vt 0.00220156 0.135417
vt 0.00220156 -7.0674e-19
v 0.99227 1.09537e-14 -12.5303
vt 0.0128317 -3.167e-18
vn 0.707107 -5.2135e-17 -0.707107
v 0.99227 38.9583 -12.5303
vn 0.703838 -0.0553932 -0.708198
f 239/88/32 238/89/30 240/90/33 241/91/33 242/92/33 234/93/30 233/94/30 243/95/34 244/86/35 

vt -0.0277778 0.0460768
vn -3.27867e-17 1 -7.27027e-15
v 95.7119 8.3125 -12
vt -1.77778 0.0460768
v 95.8584 8.16605 -12.3536
vt -1.78049 0.0389901
vn -8.06976e-18 0.707107 -0.707107
vt -0.0250658 0.0389901
f 238/96/36 245/97/36 246/98/37 240/99/37 

v 95.8584 8.16605 -11.6464
vt 1.78049 0.0646534
vn -3.71835e-17 0.707107 0.707107
vt 1.77778 0.0717401
vt 0.0277778 0.0717401
vt 0.0250658 0.0646534
f 247/100/38 245/101/36 238/102/36 237/103/38 

v 95.7119 38.941 -12
vt 0.667494 0.721129
vn -0.996917 -0.0784591 1.29582e-15
vt 0.667494 0.153935
vn -1 -6.49296e-18 2.61369e-15
vt 0.674581 0.151223
vn -0.92388 8.3494e-17 0.382683
v 95.919 7.8125 -11.5
vt 0.677517 0.144676
v 95.8584 7.45895 -11.6464
vt 0.674581 0.138129
v 95.7119 7.3125 -12
vt 0.667494 0.135417
v 95.7119 1.10865e-14 -12
vt 0.667494 1.41058e-16
v 95.9316 1.10865e-14 -11.4697
vt 0.678125 1.41058e-16
vn -0.707107 1.81908e-16 0.707107
v 95.9316 38.9583 -11.4697
vt 0.678125 0.721449
vn -0.703838 -0.0553932 0.708198
f 248/104/39 245/105/40 247/106/41 249/107/41 250/108/41 251/109/40 252/110/40 253/111/42 254/112/43 

vt -0.693158 -1.52853e-16
vt -0.693158 0.135417
v 95.8584 7.45895 -12.3536
vt -0.700244 0.138129
vn -0.92388 -9.54914e-17 -0.382683
v 95.919 7.8125 -12.5
vt -0.70318 0.144676
vt -0.700244 0.151223
vt -0.693158 0.153935
vt -0.693158 0.721129
vn -0.996917 -0.0784591 1.28075e-15
v 95.9316 38.9583 -12.5303
vt -0.703788 0.721449
vn -0.703838 -0.0553932 -0.708198
v 95.9316 1.10865e-14 -12.5303
vt -0.703788 -1.52853e-16
vn -0.707107 -1.76986e-16 -0.707107
f 252/113/40 251/114/40 255/115/44 256/116/44 246/117/44 245/118/40 248/119/45 257/120/46 258/121/47 

vt -0.0250658 0.0717401
vn -1.2325e-18 -0.707107 -0.707107
vt -1.78049 0.0717401
vt -1.77778 0.0646534
vn -2.11188e-17 -1 -3.00424e-15
vt -0.0277778 0.0646534
f 242/122/48 255/123/48 251/124/49 234/125/49 

vt -0.0239425 0.142522
vn -3.7486e-18 1.65233e-15 -1
vt -1.78161 0.142522
vt -1.78049 0.135435
vt -0.0250658 0.135435
f 241/126/50 256/127/50 255/128/48 242/129/48 

vt -0.0250658 0.131891
vt -1.78049 0.131891
vt -1.78161 0.124805
vt -0.0239425 0.124805
f 240/130/37 246/131/37 256/132/50 241/133/50 

vt 0.0277778 0.0389901
vt 1.77778 0.0389901
vt 1.78049 0.0460768
vn -1.97589e-17 -0.707107 0.707107
vt 0.0250658 0.0460768
f 234/134/49 251/135/49 250/136/51 235/137/51 

vt 0.0250658 0.124805
vt 1.78049 0.124805
vt 1.78161 0.131891
vn -8.59055e-18 1.9828e-15 1
vt 0.0239425 0.131891
f 235/138/51 250/139/51 249/140/52 236/141/52 

vt 1.78049 0.142522
vt 0.0250658 0.142522
vt 0.0239425 0.135435
vt 1.78161 0.135435
f 247/142/38 237/143/38 236/144/52 249/145/52 

v 95.4461 40.6195 -12
vt -0.698449 0.508804
vn -0.951057 -0.309017 1.52085e-17
v 95.6576 40.6882 -12.5303
vt -0.709021 0.51009
vn -0.66832 -0.21715 -0.711473
vt -0.710983 0.477715
vt -0.700353 0.477391
f 259/146/53 260/147/54 257/148/46 248/149/45 

v 94.7017 42.0804 -12
vt -0.754142 0.0408145
vn -0.809017 -0.587785 1.77939e-15
v 94.8816 42.2111 -12.5303
vt -0.764452 0.0434813
vn -0.568507 -0.413045 -0.711473
vt -0.77051 0.0124141
vt -0.759953 0.0110121
f 261/150/55 262/151/56 260/152/54 259/153/53 

v 93.5423 43.2398 -12
vt -0.890253 -0.368628
vn -0.587785 -0.809017 2.85919e-15
v 93.673 43.4197 -12.5303
vt -0.899951 -0.364227
vn -0.413045 -0.568507 -0.711473
vt -0.911263 -0.393789
vt -0.901105 -0.396986
f 263/154/57 264/155/58 262/156/56 261/157/55 

vt -1.18141 -0.594303
v 92.0814 43.9842 -12
vt -1.16317 -0.570025
vn -0.309017 -0.951057 9.88549e-16
v 92.1501 44.1957 -12.5303
vt -1.17129 -0.563126
vn -0.21715 -0.66832 -0.711473
vt -1.1903 -0.588434
f 263/158/57 265/159/59 266/160/60 264/161/58 

vt 1.14265 -0.585436
vn -0.309017 -0.951057 9.58132e-16
vt 1.16089 -0.609715
v 93.673 43.4197 -11.4697
vt 1.16977 -0.603846
vn -0.413045 -0.568507 0.711473
v 92.1501 44.1957 -11.4697
vt 1.15077 -0.578537
vn -0.21715 -0.66832 0.711473
f 265/162/61 263/163/57 267/164/62 268/165/63 

vt 0.875982 -0.373399
vt 0.866285 -0.3778
vt 0.877137 -0.406158
v 94.8816 42.2111 -11.4697
vt 0.887295 -0.402961
vn -0.568507 -0.413045 0.711473
f 267/166/62 263/167/57 261/168/55 269/169/64 

vt 0.739263 0.0385698
vt 0.728953 0.035903
vt 0.734764 0.00610056
v 95.6576 40.6882 -11.4697
vt 0.745321 0.00750259
vn -0.66832 -0.21715 0.711473
f 269/170/64 261/171/55 259/172/53 270/173/65 

vt 0.683404 0.508537
vt 0.672833 0.507251
vn -0.951057 -0.309017 -0
vt 0.674737 0.475838
vt 0.685367 0.476162
f 270/174/65 259/175/66 248/176/39 254/177/43 

v 96.1683 40.8541 -11.25
vt 1.65323 0.714711
vn 2.82399e-15 -1.43453e-15 1
vt 1.64293 0.711632
vt 1.64763 0.679539
v 96.4619 39 -11.25
vt 1.65826 0.680314
vn 1.03646e-15 -8.01757e-16 1
f 271/178/67 270/179/65 254/180/43 272/181/68 

v 95.316 42.5267 -11.25
vt 1.66094 0.669056
vn 1.51714e-15 -6.45912e-16 1
vt 1.65198 0.663122
vt 1.66546 0.634484
vt 1.67574 0.637604
f 273/182/69 269/183/64 270/184/65 271/185/67 

v 93.9887 43.8541 -11.25
vt 1.67548 0.649023
vn -1.42701e-15 1.23174e-15 1
vt 1.66872 0.640667
vt 1.6902 0.617418
vt 1.69907 0.623489
f 274/186/70 267/187/62 269/188/64 273/189/69 

v 92.316 44.7063 -11.25
vt 1.68535 0.670218
vn -7.5106e-17 2.56863e-15 1
vt 1.68158 0.660158
vt 1.7093 0.644872
vt 1.71579 0.653429
f 275/190/71 268/191/63 267/192/62 274/193/70 

v 90.4619 45 -11.25
vt 1.67704 0.730441
vn 1.07402e-15 2.34331e-15 1
v 90.4202 44.4697 -11.4697
vt 1.676 0.719833
vn -0.0553932 -0.703838 0.708198
vt 1.70797 0.714353
vt 1.7113 0.724567
vn -7.5106e-17 2.55361e-15 1
f 276/194/72 277/195/73 268/196/63 275/197/74 

v 6.46194 45 -11.25
vt 0.125 0.7699
vn -1.11158e-15 1.35191e-15 1
v 6.50368 44.4697 -11.4697
vt 0.125773 0.75927
vn 0.0553932 -0.703838 0.708198
vt 1.67978 0.75927
vt 1.68056 0.7699
vn 1.07401e-15 2.35833e-15 1
f 278/198/75 279/199/76 277/200/73 276/201/77 

v 4.60784 44.7063 -11.25
vt 0.090475 0.768695
vn -7.5106e-18 1.63731e-15 1
v 4.77376 44.1957 -11.4697
vt 0.0938043 0.758481
vn 0.21715 -0.66832 0.711473
vt 0.125773 0.763961
vt 0.124738 0.774569
vn -1.11157e-15 1.35191e-15 1
f 280/202/78 281/203/79 279/204/76 278/205/80 

v 2.93523 43.8541 -11.25
vt 0.0586623 0.767207
vn 1.67486e-15 8.56209e-16 1
v 3.25083 43.4197 -11.4697
vt 0.065158 0.75865
vn 0.413045 -0.568507 0.711473
vt 0.0928745 0.773936
vt 0.089103 0.783995
f 282/206/81 283/207/82 281/208/79 280/209/78 

v 1.60784 42.5267 -11.25
vt 0.0336937 0.760821
vn 6.45912e-16 -2.74888e-15 1
v 2.04223 42.2111 -11.4697
vt 0.0425572 0.75475
vn 0.568507 -0.413045 0.711473
vt 0.0640363 0.777999
vt 0.057284 0.786355
vn 1.68238e-15 8.41188e-16 1
f 284/210/83 285/211/84 283/212/82 282/213/85 

v 0.755601 40.8541 -11.25
vt 0.0181316 0.746215
vn 1.50212e-16 -3.59758e-15 1
v 1.26626 40.6882 -11.4697
vt 0.0284118 0.743095
vn 0.66832 -0.21715 0.711473
vt 0.0418928 0.771732
vt 0.0329376 0.777667
vn 6.30891e-16 -2.75639e-15 1
f 286/214/86 287/215/87 285/216/84 284/217/88 

vt 0.0128547 0.721242
vn 6.00848e-17 -1.30309e-15 1
vt 0.0234847 0.720467
vt 0.0281808 0.75256
vt 0.017888 0.755639
vn 1.50212e-16 -3.59382e-15 1
f 230/218/89 232/219/29 287/220/87 286/221/90 

vt 0.012921 0.716807
vt 0.023551 0.716484
v 1.47778 40.6195 -12
vt 0.025455 0.747897
vn 0.951057 -0.309017 4.56254e-17
vt 0.0148834 0.749183
f 232/222/29 239/223/32 288/224/91 287/225/87 

vt 0.00206527 0.718037
vt 0.0126953 0.71836
v 1.26626 40.6882 -12.5303
vt 0.010733 0.750735
vn 0.66832 -0.21715 -0.711473
vt 0.000161311 0.749449
vn 0.951057 -0.309017 3.04169e-17
f 239/226/32 244/227/35 289/228/92 288/229/93 

vt -0.0129666 0.722007
v 0.46194 39 -12.75
vt -0.00233663 0.722781
vn -1.95276e-16 1.10781e-15 -1
v 0.755601 40.8541 -12.75
vt -0.00736987 0.757178
vn -1.05148e-16 2.30576e-15 -1
vt -0.0176627 0.7541
f 244/230/35 290/231/94 291/232/95 289/233/92 

vt -0.0128317 0.721449
vt -0.0128317 8.18938e-18
v 0.46194 1.08986e-14 -12.75
vt -0.00220156 7.17031e-18
vn -6.00848e-17 -2.50512e-16 -1
vt -0.00220156 0.722222
vn -1.95276e-16 1.10714e-15 -1
f 244/234/35 243/235/34 292/236/96 290/237/97 

vt -0.0234618 0.722222
vn -1.80255e-16 1.10648e-15 -1
vt -0.0234618 4.70909e-18
vt -0.0128317 5.72816e-18
vt -0.0128317 0.722995
f 290/238/98 292/239/96 225/240/20 223/241/18 

vt -0.0233728 0.719703
vn -1.80255e-16 1.10594e-15 -1
vt -0.0127428 0.720477
vt -0.0181132 0.757178
vt -0.028406 0.7541
f 290/242/99 223/243/18 221/244/16 291/245/95 

vt -0.0277494 0.741687
vt -0.0174691 0.744807
vt -0.0336001 0.779075
v 1.60784 42.5267 -12.75
vt -0.0425553 0.77314
vn -3.00424e-16 1.17916e-15 -1
f 291/246/95 221/247/16 217/248/12 293/249/100 

vt -0.0415016 0.753608
vn -2.85403e-16 1.18668e-15 -1
vt -0.0326382 0.759679
vt -0.0583395 0.787498
v 2.93523 43.8541 -12.75
vt -0.0650919 0.779142
vn -2.61369e-15 1.35191e-16 -1
f 293/250/101 217/251/12 220/252/15 294/253/102 

vt -0.0637959 0.757899
vt -0.0573002 0.766456
v 4.44191 45.217 -12.5303
vt -0.0904651 0.784746
vn -0.21715 0.66832 -0.711473
v 4.60784 44.7063 -12.75
vt -0.0942366 0.774687
vn -1.29182e-15 6.90976e-16 -1
f 294/254/102 220/255/15 295/256/103 296/257/104 

vt -0.0538075 0.485255
vt -0.0449208 0.491124
v 4.37319 45.4285 -12
vt -0.0684397 0.522438
vn -0.309017 0.951057 1.67293e-16
vt -0.0765525 0.515539
f 220/258/15 219/259/14 297/260/105 295/261/103 

vt 0.0244006 0.506536
vn -0.587785 0.809017 1.21668e-16
v 2.61962 44.2885 -11.4697
vt 0.0332873 0.500667
vn -0.413045 0.568507 0.711473
v 4.44191 45.217 -11.4697
vt 0.0560323 0.530951
vn -0.21715 0.66832 0.711473
vt 0.0479195 0.53785
vn -0.309017 0.951057 1.82501e-16
f 219/262/106 298/263/107 299/264/108 297/265/109 

vt 1.16237e-05 0.620474
v 1.17344 42.8423 -11.4697
vt 0.0101699 0.617277
vn -0.568507 0.413045 0.711473
vt 0.0237064 0.652649
vt 0.0140087 0.65705
f 218/266/13 300/267/110 298/268/107 219/269/14 

vt -0.0100848 0.695457
v 0.24494 41.02 -11.4697
vt 0.000472084 0.694055
vn -0.66832 0.21715 0.711473
vt 0.00772055 0.731229
vt -0.00258975 0.733896
f 222/270/17 301/271/111 300/272/110 218/273/13 

vt -0.0128082 0.716497
vt -0.00217816 0.716174
vt 6.58832e-05 0.753198
vt -0.0105058 0.754484
vn -0.951057 0.309017 -3.65003e-16
f 224/274/24 228/275/23 301/276/111 222/277/112 

vt 0.00222472 0.722016
vn 6.00848e-17 -1.30121e-15 1
vt 0.00759508 0.758717
f 228/278/23 230/218/113 286/221/90 301/279/111 

vt 0.00785136 0.749335
vn 1.50212e-16 -3.59007e-15 1
vt 0.0239823 0.783602
f 301/280/111 286/214/114 284/217/83 300/281/110 

vt 0.0248303 0.766892
vn 1.66735e-15 8.56209e-16 1
vt 0.0505316 0.794711
f 300/282/110 284/210/83 282/213/115 298/283/107 

vt 0.0521666 0.775764
vt 0.0853315 0.794055
f 298/284/107 282/206/81 280/209/78 299/285/108 

vt 0.0871458 0.77891
vn -1.12659e-17 1.63731e-15 1
v 6.4202 45.5303 -11.4697
vt 0.123704 0.785177
vn -0.0553932 0.703838 0.708198
f 299/286/108 280/202/116 278/205/80 302/287/117 

vt 0.124227 0.78053
vn -1.11155e-15 1.35191e-15 1
vn 1.07404e-15 2.32829e-15 1
v 90.5037 45.5303 -11.4697
vt 1.68133 0.78053
vn 0.0553932 0.703838 0.708198
f 302/288/117 278/198/118 276/201/119 303/289/120 

vt 1.67807 0.741049
vn 1.07402e-15 2.32829e-15 1
vn -7.32284e-17 2.56863e-15 1
v 92.482 45.217 -11.4697
vt 1.71463 0.734781
vn 0.21715 0.66832 0.711473
f 303/290/120 276/194/121 275/197/122 304/291/123 

vt 1.68912 0.680277
vn -1.43453e-15 1.23174e-15 1
v 94.3043 44.2885 -11.4697
vt 1.72229 0.661987
vn 0.413045 0.568507 0.711473
f 304/292/123 275/190/71 274/193/124 305/293/125 

vt 1.68223 0.657379
v 95.7504 42.8423 -11.4697
vt 1.70793 0.62956
vn 0.568507 0.413045 0.711473
f 305/294/125 274/186/70 273/189/69 306/295/126 

vt 1.66989 0.674991
v 96.6789 41.02 -11.4697
vt 1.68602 0.640724
vn 0.66832 0.21715 0.711473
f 306/296/126 273/182/69 271/185/67 307/297/127 

vt 1.66352 0.717789
v 96.9923 39.0417 -11.4697
vt 1.66889 0.681088
vn 0.703838 0.0553932 0.708198
f 307/298/127 271/178/67 272/181/68 308/299/128 

vt 1.65528 0.722222
vn 1.05148e-15 -8.02948e-16 1
v 96.4619 1.10865e-14 -11.25
vt 1.65528 -1.69534e-16
vn 3.00424e-17 2.73285e-16 1
v 96.9923 1.10865e-14 -11.4697
vt 1.66591 -1.69534e-16
vn 0.707107 1.77965e-16 0.707107
vt 1.66591 0.722995
f 272/300/129 309/301/130 310/302/131 308/303/128 

vt 1.64465 0.721449
vt 1.64465 1.76691e-16
vt 1.65528 1.76691e-16
vn 1.03646e-15 -8.02183e-16 1
f 254/304/43 253/305/42 309/306/130 272/300/132 

v 97.2119 24.7166 -12
vt 0.703788 0.457715
vn 1 7.45352e-19 -8.7123e-16
v 97.2119 36.1229 -12
vt 0.703788 0.668942
v 97.1447 36.1229 -11.8376
vt 0.700533 0.668942
vn 0.92388 7.64989e-17 0.382683
v 97.2119 36.4041 -12
vt 0.703788 0.67415
v 97.2119 39.059 -12
vt 0.703788 0.723315
vn 0.996917 0.0784591 -1.00953e-15
vt 0.693158 0.722995
vt 0.693158 -1.23723e-16
v 97.2119 1.10865e-14 -12
vt 0.703788 -1.23723e-16
v 97.2119 24.4354 -12
vt 0.703788 0.452507
f 311/307/133 312/308/133 313/309/134 314/310/133 315/311/135 308/312/128 310/313/131 316/314/133 317/315/133 

vt -0.678125 0.723315
vt -0.678125 0.67415
v 97.1447 36.1229 -12.1624
vt -0.67487 0.668942
vn 0.92388 -7.51217e-17 -0.382683
vt -0.678125 0.668942
vt -0.678125 0.457715
vt -0.678125 0.452507
vt -0.678125 1.2919e-16
v 96.9923 1.10865e-14 -12.5303
vt -0.667494 1.2919e-16
vn 0.707107 -1.65862e-16 -0.707107
v 96.9923 39.0417 -12.5303
vt -0.667494 0.722995
vn 0.703838 0.0553932 -0.708198
f 315/316/135 314/317/133 318/318/136 312/319/133 311/320/133 317/321/133 316/322/133 319/323/137 320/324/138 

vn 1 6.38685e-28 -2.32829e-14
vn 0.92388 4.84463e-15 -0.382683
f 314/317/139 312/319/139 318/318/140

vn 0.92388 -4.84463e-15 0.382683
f 312/308/139 314/310/139 313/309/141

v 98.2495 36.4041 -12
vt 1.82477 0.590776
vn 0.382352 0.924017 -5.52698e-15
vt 1.80556 0.590776
vn -7.17464e-15 1 -1.03251e-14
vt 1.80431 0.584762
vn -6.69833e-15 -0.5 0.866025
v 98.1331 36.1229 -11.8376
vt 1.82261 0.584762
vn -0.179969 -0.434925 0.882299
f 321/325/142 314/326/143 313/327/144 322/328/145 

v 98.1331 36.1229 -12.1624
vt -1.82261 0.570873
vn -0.179969 -0.434925 -0.882299
vt -1.80431 0.570873
vn -4.76305e-16 -0.5 -0.866025
vt -1.80556 0.576887
vt -1.82477 0.576887
vn 0.382352 0.924017 -5.58706e-15
f 323/329/146 318/330/147 314/331/143 321/332/148 

vt -1.82261 0.0108819
vt -1.80431 0.0108819
vt -1.80556 0.0138889
vn 0 -1 -0
vt -1.80431 0.0168959
vt -1.82261 0.0168959
f 322/333/145 313/334/144 312/335/149 318/336/147 323/337/146 

v 98.2533 36.0029 -12.1624
vt -0.0168959 -0.820178
vn -0.434696 -0.18024 -0.882357
v 98.2533 36.0029 -11.8376
vt -0.0108819 -0.820178
vn -0.434696 -0.18024 0.882357
vt -0.0108819 -0.817033
vt -0.0168959 -0.817033
f 324/338/150 325/339/151 322/340/145 323/341/146 

v 98.2533 34.7293 -12.1624
vt -0.0168959 0.643135
vn -0.5 -6.67817e-19 -0.866025
v 98.2533 34.7293 -11.8376
vt -0.0108819 0.643135
vn -0.5 -6.67817e-19 0.866025
vt -0.0108819 0.66672
vt -0.0168959 0.66672
f 326/342/152 327/343/153 325/344/151 324/345/150 

v 98.5345 34.7293 -12
vt -1.83005 0.0138889
vt -1.82484 0.0108819
vt -1.82484 0.0168959
f 328/346/149 327/347/149 326/348/149

vt 1.5858 0.643135
vt 1.59181 0.643135
vn 1 -1.33563e-18 -0
v 98.5345 36.1195 -12
vt 1.59181 0.66888
vn 0.923742 0.383015 -0
vt 1.5858 0.66672
f 327/349/153 328/350/154 329/351/155 325/352/151 

vt -1.57792 0.643135
vt -1.57191 0.643135
vt -1.57191 0.66672
vt -1.57792 0.66888
f 328/353/154 326/354/152 324/355/150 329/356/155 

vt -1.68922 0.376491
vt -1.68326 0.374182
vt -1.6812 0.376557
vt -1.68434 0.382126
f 329/357/155 324/358/150 323/359/146 321/360/148 

vt 1.69376 0.383282
vt 1.69971 0.38559
vt 1.69483 0.391225
vt 1.6917 0.385657
f 325/361/151 329/362/155 321/363/148 322/364/145 

v 96.4619 1.10865e-14 -12.75
vt -1.64465 1.6804e-16
vn 3.00424e-17 -2.50512e-16 -1
v 96.4619 39 -12.75
vt -1.64465 0.722222
vn 1.30685e-15 1.64349e-15 -1
vt -1.65528 0.722995
vt -1.65528 1.6804e-16
f 330/365/156 331/366/157 320/367/138 319/368/137 

vt -1.65528 0.721449
vt -1.66591 0.722222
vn 1.30685e-15 1.64413e-15 -1
vt -1.66591 -1.49329e-16
vt -1.65528 -1.49329e-16
f 257/369/46 331/370/158 330/371/156 258/372/47 

vt -1.65345 0.713171
v 96.1683 40.8541 -12.75
vt -1.66374 0.71625
vn 3.49994e-15 4.66784e-15 -1
vt -1.66878 0.681853
vn 1.30685e-15 1.64482e-15 -1
vt -1.65815 0.681078
f 260/373/54 332/374/159 331/375/160 257/376/46 

vt -1.6616 0.667649
v 95.316 42.5267 -12.75
vt -1.67056 0.673584
vn 5.12223e-15 5.30249e-15 -1
vt -1.68536 0.642131
vn 3.51496e-15 4.6716e-15 -1
vt -1.67508 0.639011
f 262/377/56 333/378/161 332/379/162 260/380/54 

vt -1.67653 0.64788
v 93.9887 43.8541 -12.75
vt -1.68328 0.656236
vn 5.84325e-15 4.04071e-15 -1
vt -1.70688 0.630703
vt -1.69801 0.624631
f 264/381/58 334/382/163 333/383/161 262/384/56 

vt -1.68671 0.669466
v 92.316 44.7063 -12.75
vt -1.69048 0.679526
vn 1.90769e-15 3.21454e-15 -1
vt -1.72092 0.662738
vn 5.85076e-15 4.02568e-15 -1
vt -1.71443 0.654181
f 266/385/60 335/386/164 334/387/165 264/388/58 

v 90.4202 44.4697 -12.5303
vt -1.6778 0.73031
vn -0.0553932 -0.703838 -0.708198
v 90.4619 45 -12.75
vt -1.67883 0.740918
vn -1.02332e-15 2.79394e-15 -1
vt -1.7131 0.735044
vn 1.91145e-15 3.21454e-15 -1
vt -1.70977 0.72483
f 336/389/166 337/390/167 335/391/168 266/392/60 

v 6.50368 44.4697 -12.5303
vt -0.125773 0.7699
vn 0.0553932 -0.703838 -0.708198
v 6.46194 45 -12.75
vt -0.125 0.78053
vn 9.78266e-16 1.81757e-15 -1
vt -1.68056 0.78053
vn -1.02331e-15 2.79394e-15 -1
vt -1.67978 0.7699
f 338/393/169 339/394/170 337/395/171 336/396/166 

v 4.77376 44.1957 -12.5303
vt -0.0920082 0.768958
vn 0.21715 -0.66832 -0.711473
vt -0.0886789 0.779173
vn -1.28619e-15 6.75954e-16 -1
vt -0.122942 0.785046
vn 9.78256e-16 1.83259e-15 -1
vt -0.123977 0.774439
f 340/397/172 296/398/173 339/399/174 338/400/169 

v 3.25083 43.4197 -12.5303
vt -0.0600244 0.767958
vn 0.413045 -0.568507 -0.711473
vt -0.0535287 0.776515
vn -2.61369e-15 1.50212e-16 -1
vt -0.0839694 0.793303
vn -1.29182e-15 6.75954e-16 -1
vt -0.0877409 0.783244
f 341/401/175 294/402/176 296/403/177 340/404/172 

v 2.04223 42.2111 -12.5303
vt -0.0347493 0.761964
vn 0.568507 -0.413045 -0.711473
vt -0.0258858 0.768035
vn -3.15445e-16 1.17165e-15 -1
vt -0.0494761 0.793569
vt -0.0562284 0.785213
f 342/405/178 293/406/179 294/407/176 341/408/175 

vt -0.0187941 0.747622
vt -0.00851386 0.750742
vn -1.2017e-16 2.30576e-15 -1
vt -0.0233198 0.782195
vt -0.0322751 0.77626
f 289/409/92 291/410/180 293/411/100 342/412/178 

vt -0.00119078 0.697741
vt 0.00936613 0.699143
vt 0.00330844 0.73021
v 2.22216 42.0804 -12
vt -0.00700185 0.727544
vn 0.809017 -0.587785 -2.12918e-16
f 288/413/93 289/414/92 342/415/178 343/416/181 

vt -0.011512 0.620784
vt -0.00135378 0.623981
vt -0.0126665 0.653543
v 3.38156 43.2398 -12
vt -0.0223642 0.649142
vn 0.587785 -0.809017 -3.34586e-16
f 343/417/181 342/418/178 341/419/175 344/420/182 

v 4.84249 43.9842 -12
vt -0.0537771 0.527949
vn 0.309017 -0.951057 -2.88961e-16
vt -0.0355425 0.50367
vt -0.0266558 0.509539
vt -0.0456643 0.534848
f 345/421/183 344/422/182 341/423/175 340/424/172 

vt 0.047176 0.494127
vt 0.0560627 0.488258
vt 0.0742973 0.512537
vn 0.309017 -0.951057 -2.73752e-16
vt 0.0661845 0.519436
f 283/425/82 344/426/182 345/427/184 281/428/79 

vt 0.025322 0.614809
vt 0.0354803 0.611612
vt 0.0463324 0.63997
vt 0.0366347 0.644371
f 285/429/84 343/430/181 344/431/182 283/432/82 

vt 0.0158228 0.694232
vt 0.0263797 0.69283
vt 0.0321908 0.722632
vt 0.0218805 0.725299
f 287/433/87 288/434/91 343/435/181 285/436/84 

vt 0.0891292 0.361543
vt 0.0937897 0.351967
v 6.52097 44.25 -12
vt 0.122868 0.364002
vn 0.0784591 -0.996917 -4.82165e-16
vt 0.119099 0.373947
f 281/437/79 345/438/184 346/439/185 279/440/76 

vt -0.0839756 0.37568
vt -0.0793151 0.385256
vt -0.109285 0.397659
vt -0.113054 0.387715
vn 0.0784591 -0.996917 -4.97233e-16
f 345/441/183 340/442/172 338/443/169 346/444/186 

vt -1.67978 0.33705
v 90.4029 44.25 -12
vt -1.67946 0.326419
vn -0.0784591 -0.996917 -4.67097e-16
vt -0.126093 0.326419
vt -0.125773 0.33705
f 336/445/166 347/446/187 346/447/186 338/448/169 

vt -1.57606 -0.19439
vt -1.57982 -0.184445
vt -1.60979 -0.196849
vt -1.60513 -0.206425
vn -0.309017 -0.951057 9.73341e-16
f 347/449/187 336/450/166 266/451/60 265/452/188 

vt 1.57001 -0.208158
vt 1.56624 -0.218103
vn -0.0784591 -0.996917 -4.5203e-16
vt 1.59532 -0.230138
vt 1.59998 -0.220562
f 277/453/73 347/454/189 265/455/61 268/456/63 

vt 0.126093 0.300756
vn 0.0784591 -0.996917 -4.67097e-16
vt 1.67946 0.300756
vt 1.67978 0.311386
vt 0.125773 0.311386
f 346/457/190 347/458/189 277/459/73 279/460/76 

vt -0.0922712 0.758218
vn -1.28807e-15 6.90976e-16 -1
vt -0.0889419 0.768433
v 6.4202 45.5303 -12.5303
vt -0.1255 0.7747
vn -0.0553932 0.703838 -0.708198
vt -0.126535 0.764092
vn 9.78256e-16 1.81757e-15 -1
f 296/461/191 295/462/103 348/463/192 339/464/193 

vt -0.0903199 0.350531
vt -0.0856594 0.360107
v 6.40291 45.75 -12
vt -0.120823 0.37466
vn -0.0784591 0.996917 4.82165e-16
vt -0.124592 0.364716
f 295/465/103 297/466/105 349/467/194 348/468/192 

vt 0.0758453 0.383819
vt 0.0805058 0.374244
vt 0.114778 0.388428
vt 0.111009 0.398373
f 297/469/105 299/470/108 302/471/117 349/472/194 

vt 0.123907 0.33705
vt 0.124227 0.326419
vt 1.68133 0.326419
v 90.521 45.75 -12
vt 1.68165 0.33705
vn 0.0784591 0.996917 4.5203e-16
f 349/473/194 302/474/117 303/475/120 350/476/195 

vt 1.5781 -0.183732
vt 1.57433 -0.193676
vt 1.6086 -0.207861
v 92.5507 45.4285 -12
vt 1.61326 -0.198285
vn 0.309017 0.951057 1.52085e-16
f 350/477/195 303/478/120 304/479/123 351/480/196 

vt 1.16903 -0.560123
vt 1.16092 -0.567022
vt 1.18366 -0.597306
v 94.435 44.4684 -12
vt 1.19255 -0.591437
vn 0.587785 0.809017 -8.36465e-16
f 351/481/196 304/482/123 305/483/125 352/484/197 

vt 0.898608 -0.36072
vt 0.888911 -0.365121
vt 0.902447 -0.400493
v 95.9304 42.973 -12
vt 0.912605 -0.397296
vn 0.809017 0.587785 -2.12918e-15
f 352/485/197 305/486/125 306/487/126 353/488/198 

vt 0.763734 0.0471671
vt 0.753423 0.0445003
vt 0.760672 0.00732623
v 96.8905 41.0888 -12
vt 0.771229 0.00872825
vn 0.951057 0.309017 -1.88585e-15
f 353/489/198 306/490/126 307/491/127 354/492/199 

vt 0.708793 0.513838
vt 0.698222 0.512552
vt 0.700466 0.475528
vt 0.711096 0.475852
f 354/493/199 307/494/127 308/495/128 315/496/135 

v 96.6789 41.02 -12.5303
vt -0.672605 0.510999
vn 0.66832 0.21715 -0.711473
vt -0.683177 0.512286
vt -0.685479 0.474299
vt -0.674849 0.473976
f 355/497/200 354/498/199 315/499/135 320/500/138 

v 95.7504 42.8423 -12.5303
vt -0.728234 0.0395888
vn 0.568507 0.413045 -0.711473
vt -0.738545 0.0422556
vt -0.74604 0.00381674
vt -0.735483 0.00241471
f 356/501/201 353/502/198 354/503/199 355/504/200 

v 94.3043 44.2885 -12.5303
vt -0.864943 -0.374293
vn 0.413045 0.568507 -0.711473
vt -0.87464 -0.369892
vn 0.587785 0.809017 -8.21256e-16
vt -0.888637 -0.406468
vt -0.878479 -0.409666
f 357/505/202 352/506/203 353/507/198 356/508/201 

v 92.482 45.217 -12.5303
vt -1.1404 -0.582434
vn 0.21715 0.66832 -0.711473
vt -1.14851 -0.575535
vt -1.17203 -0.606849
vt -1.16314 -0.612718
f 358/509/204 351/510/196 352/511/203 357/512/202 

v 90.5037 45.5303 -12.5303
vt -1.56452 -0.217389
vn 0.0553932 0.703838 -0.708198
vt -1.56829 -0.207445
vn 0.0784591 0.996917 4.67097e-16
vt -1.60345 -0.221998
vt -1.59879 -0.231574
f 359/513/205 350/514/206 351/515/196 358/516/204 

vt -0.124227 0.300756
vt -0.123907 0.311386
vn -0.0784591 0.996917 4.67097e-16
vt -1.68165 0.311386
vt -1.68133 0.300756
f 348/517/192 349/518/207 350/519/206 359/520/205 

vt -0.125 0.75927
vt -0.124227 0.7699
vt -1.68133 0.7699
vt -1.68056 0.75927
f 339/521/170 348/522/192 359/523/205 337/524/171 

vt -1.67524 0.719964
vn -1.02332e-15 2.77892e-15 -1
vt -1.67628 0.730572
vt -1.71284 0.724304
vt -1.70951 0.71409
vn 1.91708e-15 3.22956e-15 -1
f 337/525/208 359/526/205 358/527/204 335/528/209 

vt -1.68022 0.660909
vn 1.9152e-15 3.22956e-15 -1
vt -1.68399 0.670969
vt -1.71715 0.652678
vt -1.71066 0.644121
vn 5.85076e-15 4.01066e-15 -1
f 335/529/210 358/530/204 357/531/202 334/532/211 

vt -1.66767 0.641809
vn 5.84325e-15 4.01066e-15 -1
vt -1.67442 0.650165
vt -1.70012 0.622346
vt -1.69126 0.616275
f 334/533/212 357/534/202 356/535/201 333/536/161 

vt -1.65132 0.664529
vn 5.13725e-15 5.30249e-15 -1
vt -1.66028 0.670464
vt -1.67641 0.636197
vt -1.66613 0.633076
f 333/537/213 356/538/201 355/539/200 332/540/162 

vt -1.64271 0.713171
vn 3.49994e-15 4.66409e-15 -1
vt -1.653 0.71625
vt -1.65837 0.679549
vt -1.64774 0.678774
vn 1.30685e-15 1.64294e-15 -1
f 332/541/214 355/542/200 320/543/138 331/544/215 

g Mesh27 Barrier1 Barrier_Steel1 Model

v 98.2533 23.0418 -11.8376
vt 1.5858 0.426699
v 98.5345 23.0418 -12
vt 1.59181 0.426699
vn 1 2.00345e-18 -0
v 98.5345 24.432 -12
vt 1.59181 0.452445
vn 0.923742 0.383015 6.00938e-17
v 98.2533 24.3154 -11.8376
vt 1.5858 0.450285
f 360/545/153 361/546/216 362/547/217 363/548/151 

v 98.2533 23.0418 -12.1624
f 361/346/149 360/347/149 364/348/149

vt -0.0168959 0.426699
vn -0.5 2.67127e-18 -0.866025
vt -0.0108819 0.426699
vt -0.0108819 0.450285
v 98.2533 24.3154 -12.1624
vt -0.0168959 0.450285
f 364/549/218 360/550/153 363/551/151 365/552/150 

vt -0.0168959 -0.97311
vt -0.0108819 -0.97311
v 98.1331 24.4354 -11.8376
vt -0.0108819 -0.969966
v 98.1331 24.4354 -12.1624
vt -0.0168959 -0.969966
f 365/553/150 363/554/151 366/555/145 367/556/146 

vt 1.69376 0.180846
vt 1.69971 0.183155
v 98.2495 24.7166 -12
vt 1.69483 0.18879
vn 0.382352 0.924017 -7.62964e-15
vt 1.6917 0.183221
f 363/557/151 362/558/217 368/559/219 366/560/145 

vt -1.68922 0.174055
vt -1.68326 0.171746
vt -1.6812 0.174121
vt -1.68434 0.17969
f 362/561/155 365/562/150 367/563/146 368/564/219 

vt -1.57792 0.426699
vt -1.57191 0.426699
vt -1.57191 0.450285
vt -1.57792 0.452445
f 361/565/216 364/566/218 365/567/150 362/568/155 

vt -1.82261 0.383435
v 97.1447 24.4354 -12.1624
vt -1.80431 0.383435
vn 2.76745e-15 -0.5 -0.866025
vt -1.80556 0.389449
vn -6.67752e-15 1 -1.39888e-14
vt -1.82477 0.389449
f 367/569/146 369/570/220 311/571/221 368/572/219 

v 97.1447 24.4354 -11.8376
vn -4.27077e-15 -0.5 0.866025
vn 2.5871e-15 -1 -1.73171e-28
f 366/333/145 370/334/222 317/335/223 369/336/220 367/337/146 

vt 1.82477 0.403337
vt 1.80556 0.403337
vt 1.80431 0.397323
vt 1.82261 0.397323
f 368/573/219 311/574/221 370/575/222 366/576/145 

g Mesh28 Barrier_Steel1 Model

usemtl _Light_Gray_
v -0.336217 34.7479 -11.9788
vt 9.99896 34.7479
vn 1 0 -0
v -0.523717 34.7479 -12.3036
vt 10.374 34.7479
vn 0.5 0 -0.866025
v -0.523717 36.1229 -12.3036
vt 10.374 36.1229
v -0.336217 36.1229 -11.9788
vt 9.99896 36.1229
f 371/577/224 372/578/225 373/579/225 374/580/224 

vt -0.75 11.9788
v -0.523717 34.7479 -11.6541
vt -0.5625 11.6541
v -0.898717 34.7479 -11.6541
vt -0.1875 11.6541
v -1.08622 34.7479 -11.9788
vt 0 11.9788
v -0.898717 34.7479 -12.3036
vt -0.1875 12.3036
vt -0.5625 12.3036
f 371/581/149 375/582/149 376/583/149 377/584/149 378/585/149 372/586/149 

vn 0.5 0 0.866025
vt 10.749 34.7479
vt 10.749 36.1229
v -0.523717 36.1229 -11.6541
f 375/578/226 371/587/224 374/588/224 379/579/226 

vt 0.5625 11.6541
vn 0 1 -0
vt 0.75 11.9788
vt 0.5625 12.3036
v -0.898717 36.1229 -12.3036
vt 0.1875 12.3036
v -1.08622 36.1229 -11.9788
v -0.898717 36.1229 -11.6541
vt 0.1875 11.6541
f 379/589/227 374/590/227 373/591/227 380/592/227 381/584/227 382/593/227 

vt -0.5625 34.7479
vt -0.1875 34.7479
vn -0.5 0 -0.866025
vt -0.1875 36.1229
vt -0.5625 36.1229
f 372/594/225 378/595/228 380/596/228 373/597/225 

vt -10.749 34.7479
vt -10.374 34.7479
vn -1 0 -0
vt -10.374 36.1229
vt -10.749 36.1229
f 378/598/228 377/599/229 381/600/229 380/601/228 

vt -9.99896 34.7479
vn -0.5 0 0.866025
vt -9.99896 36.1229
f 377/599/229 376/602/230 382/603/230 381/600/229 

vt 0.1875 34.7479
vt 0.5625 34.7479
vt 0.5625 36.1229
vt 0.1875 36.1229
f 376/604/230 375/605/226 379/606/226 382/607/230 

g Mesh29 Barrier_Steel1 Model

v -0.898717 22.9404 -12.3036
vt -10.749 22.9404
v -1.08622 22.9404 -11.9788
vt -10.374 22.9404
v -1.08622 24.3154 -11.9788
vt -10.374 24.3154
v -0.898717 24.3154 -12.3036
vt -10.749 24.3154
f 383/608/228 384/609/229 385/610/229 386/611/228 

v -0.336217 22.9404 -11.9788
v -0.523717 22.9404 -11.6541
v -0.898717 22.9404 -11.6541
v -0.523717 22.9404 -12.3036
f 387/581/149 388/582/149 389/583/149 384/584/149 383/585/149 390/586/149 

vt 10.374 22.9404
vt 10.749 22.9404
v -0.336217 24.3154 -11.9788
vt 10.749 24.3154
v -0.523717 24.3154 -11.6541
vt 10.374 24.3154
f 388/612/226 387/613/224 391/614/224 392/615/226 

vt 9.99896 22.9404
v -0.523717 24.3154 -12.3036
vt 9.99896 24.3154
f 387/616/224 390/612/225 393/615/225 391/617/224 

vt -0.5625 22.9404
vt -0.1875 22.9404
vt -0.1875 24.3154
vt -0.5625 24.3154
f 390/618/225 383/619/228 386/620/228 393/621/225 

v -0.898717 24.3154 -11.6541
f 392/589/227 391/590/227 393/591/227 386/592/227 385/584/227 394/593/227 

vt -9.99896 22.9404
vt -9.99896 24.3154
f 384/609/229 389/622/230 394/623/230 385/610/229 

vt 0.1875 22.9404
vt 0.5625 22.9404
vt 0.5625 24.3154
vt 0.1875 24.3154
f 389/624/230 388/625/226 392/626/226 394/627/230 

